<?xml version="1.0" encoding="utf-8"?>
<!-- Generator: Adobe Illustrator 18.0.0, SVG Export Plug-In . SVG Version: 6.00 Build 0)  -->
<!DOCTYPE svg PUBLIC "-//W3C//DTD SVG 1.1//EN" "http://www.w3.org/Graphics/SVG/1.1/DTD/svg11.dtd">
<svg version="1.1" id="Layer_1" xmlns="http://www.w3.org/2000/svg" xmlns:xlink="http://www.w3.org/1999/xlink" x="0px" y="0px"
	 viewBox="0 0 291.5 73.8" enable-background="new 0 0 291.5 73.8" xml:space="preserve">
<g>
	<g>
		<g>
			<path fill="#7C2F1F" d="M112,13.7c11.4-4.6,20.9-6.1,28.8-5.7c10.4,0.5,19.3,1.8,20.9,2.7c0.5,0.3,0.6,0.2,0,0
				c-14.8-5.1-26.7,0.9-40.5,9.3C106,29.1,74.2,50.4,54.6,54.8c-11,2.5-22.4,3.6-34.2-1C3,47.1,0.7,33.9,1.1,31.4
				c0.2-0.8,0.4-0.3,0.4-0.1c0.6,6.3,6.6,12.2,13.8,15.4c5.7,2.5,11.7,3.3,17.3,2.8c15.9-1.2,28.7-8.2,41.3-15.2
				C86.7,27.3,98.1,19.4,112,13.7z"/>
		</g>
		<g>
			<path fill="#672D00" d="M112,13.7c11.4-4.6,20.9-6.1,28.8-5.7c10.4,0.5,19.3,1.8,20.9,2.7c0.5,0.3,0.6,0.2,0,0
				c-14.8-5.1-26.7,0.9-40.5,9.3C106,29.1,74.2,50.4,54.6,54.8c-11,2.5-22.4,3.6-34.2-1C3,47.1,0.7,33.9,1.1,31.4
				c0.2-0.8,0.4-0.3,0.4-0.1c0.6,6.3,6.6,12.2,13.8,15.4c5.7,2.5,11.7,3.3,17.3,2.8c15.9-1.2,28.7-8.2,41.3-15.2
				C86.7,27.3,98.1,19.4,112,13.7z"/>
		</g>
	</g>
	<g>
		<g>
			<path fill="#A27C5F" d="M109.7,10.2c11.4-4.6,20.9-6.1,28.8-5.7c10.4,0.5,21.6,5.3,23.1,6.2c0.5,0.3,0.3,0.6-0.3,0.4
				c-14.8-5.1-28.7-3-42.5,5.4c-15.1,9.1-46.9,30.4-66.5,34.8c-11,2.5-22.4,3.6-34.2-1C0.7,43.6-0.1,29.8,0.4,27.3
				c0.2-0.8,0.4-0.3,0.4-0.1c0.6,6.3,5,12.8,12.3,16c5.7,2.5,11.7,3.3,17.3,2.8c15.9-1.2,28.7-8.2,41.3-15.1
				C84.4,23.8,95.8,15.8,109.7,10.2z"/>
		</g>
		<g>
			<path fill="#A27C5F" d="M109.7,10.2c11.4-4.6,20.9-6.1,28.8-5.7c10.4,0.5,21.6,5.3,23.1,6.2c0.5,0.3,0.3,0.6-0.3,0.4
				c-14.8-5.1-28.7-3-42.5,5.4c-15.1,9.1-46.9,30.4-66.5,34.8c-11,2.5-22.4,3.6-34.2-1C0.7,43.6-0.1,29.8,0.4,27.3
				c0.2-0.8,0.4-0.3,0.4-0.1c0.6,6.3,5,12.8,12.3,16c5.7,2.5,11.7,3.3,17.3,2.8c15.9-1.2,28.7-8.2,41.3-15.1
				C84.4,23.8,95.8,15.8,109.7,10.2z"/>
		</g>
	</g>
	<path fill="#A27C5F" d="M27.5,39.9c-3.4,0.2-6.3-2.4-6.4-5.7c-0.1-3.3,2.6-6.2,6-6.3c3.4-0.2,6.3,2.4,6.4,5.7
		C33.6,36.9,30.9,39.7,27.5,39.9z"/>
</g>
<g>
	<path fill="#672D00" d="M111.3,51.2c1.3,2.4,2.8,3.9,5.4,3.9c2.7,0,4.6-2.5,4.6-5.5c0-7.1-10.4-3.9-10.4-12.5
		c0-4.9,3.4-7.3,7.4-7.3c1.6,0,3.5,0.6,4.8,1.8c-0.4,1-0.6,2-0.9,3.1h-0.3c-0.7-2-2.2-3.3-4.1-3.3c-2.3,0-4.2,1.7-4.2,4.4
		c0,7,10.5,4.2,10.5,12.3c0,5.4-3.7,8.7-8.2,8.7c-1.6,0-4.3-0.8-5.4-2.2c0.3-1.1,0.5-2.2,0.6-3.4H111.3z"/>
	<path fill="#672D00" d="M136.9,43.4c0-8.3,5.4-13.6,12.3-13.6c6.3,0,12.6,3.9,12.6,13c0,8.5-5.3,14-12.7,14
		C141.8,56.8,136.9,51.5,136.9,43.4z M156.5,34.7c-1.7-2.4-4.3-3.7-6.9-3.7c-5.9,0-9.4,5-9.4,12.8c0,7.7,4.1,11.7,9.1,11.7
		c7,0,9.6-8.3,9.3-12.5C158.6,39.9,158.2,37.3,156.5,34.7z"/>
	<path fill="#672D00" d="M195.9,56.3h-1c-0.4-0.5-1-1.4-1.7-2.3l-14.4-18.2h-0.3v20.5c-0.3,0-0.6-0.1-0.9-0.1
		c-0.3,0-0.6,0.1-0.9,0.1v-26h1.3l15.8,19.6h0.3V30.4c0.3,0,0.6,0.1,0.9,0.1c0.3,0,0.6-0.1,0.9-0.1V56.3z"/>
	<path fill="#672D00" d="M231.6,34.9c-1.9-2.4-4.7-3.7-7.5-3.7c-5.7,0-9.6,4.3-9.6,11.9c0,7.5,3.4,12.2,10,12.2
		c1.8,0,3.7-0.4,5.2-1.3v-9.8c0.5,0,1,0.1,1.5,0.1c0.5,0,0.9-0.1,1.5-0.1v10.7c-2.9,1.1-6,1.8-9.1,1.8c-8.4,0-12.3-5.7-12.3-13.4
		c0-8.9,5.6-13.6,13-13.6c5,0,7.8,1.7,8.5,2.2c-0.3,1-0.5,1.9-0.8,2.9H231.6z"/>
	<path fill="#672D00" d="M250.9,41.7h5.2c1,0,2-0.2,3-0.2c0,0.3-0.1,0.6-0.1,1c0,0.3,0.1,0.6,0.1,1.1c-1,0-2-0.2-3-0.2h-5.2v11.1
		c2,0.1,4-0.1,6-0.2c1,0,2-0.2,3.1-0.3c0,0.4-0.1,0.8-0.1,1.1c0,0.4,0.1,0.8,0.1,1.1h-12V30.4h11.8c0,0.4-0.1,0.8-0.1,1.1
		c0,0.4,0.1,0.8,0.1,1.1c-1-0.2-2-0.3-3-0.4l-3.3-0.1h-2.6V41.7z"/>
	<path fill="#672D00" d="M274.6,30.4h7.1c5.1,0,7.4,1.9,7.4,5.8c0,4.4-3.5,6.5-6.8,7.2l6.9,9.9l1.6,2.1l0.6,0.9
		c-0.7,0-1.3-0.1-1.9-0.1c-0.6,0-1.3,0.1-1.9,0.1c-0.7-1.2-1.4-2.2-2.1-3.3l-3.9-5.8l-2.7-3.6h-1.3v12.7c-0.5,0-1-0.1-1.5-0.1
		c-0.5,0-1,0.1-1.5,0.1V30.4z M277.6,42.2c0.5,0,2.6,0.2,4.3-0.2c2.4-0.6,4.3-2.5,4.3-5.4c0-2.6-1.2-4.3-3.7-4.8
		c-1.2-0.2-3.5-0.1-4.9,0V42.2z"/>
	<path fill="#A27C5F" d="M146,71.3c-0.2,0-0.5-0.1-0.7-0.1c-0.2,0-0.5,0-0.7,0c-0.2-0.4-0.5-0.8-0.8-1.2c-0.7,0.8-1.6,1.3-2.6,1.3
		c-1.3,0-2.3-0.9-2.3-2.3c0-1.3,1-2.2,2.1-2.9l0.1,0c-0.4-0.7-0.8-1.3-0.8-2.1c0-1.2,0.8-2,1.9-2c0.9,0,1.6,0.5,1.6,1.4
		c0,1.2-0.9,1.9-1.6,2.5c0.5,0.7,0.9,1.5,1.5,2.1l0.6,0.8c0.5-0.8,1-1.9,1.4-2.7c0.1,0.2,0.3,0.4,0.5,0.6c-0.5,0.9-1,1.7-1.6,2.5
		L146,71.3z M141.2,66.7c-0.7,0.5-1.3,1.2-1.3,2.2c0,1.2,0.8,2,1.8,2c1,0,1.8-0.9,1.9-1C142.8,68.8,142,67.7,141.2,66.7
		C141.3,66.6,141.2,66.6,141.2,66.7z M143.1,63.6c0-0.6-0.4-1.2-1-1.2c-0.7,0-1,0.6-1,1.3c0,0.7,0.4,1.4,0.8,2
		C142.5,65.2,143.1,64.6,143.1,63.6z"/>
	<path fill="#A27C5F" d="M163,71.3c-0.2,0-0.4,0-0.6,0c-0.2,0-0.4,0-0.6,0c-0.3-1.1-0.8-2.5-1.3-3.7h-3.1c-0.4,1.2-0.9,2.4-1.2,3.7
		c-0.2,0-0.3,0-0.4,0c-0.2,0-0.3,0-0.4,0l3.7-9.6h0.3L163,71.3z M158.9,63.6l-1.3,3.5h2.6L158.9,63.6z"/>
	<path fill="#A27C5F" d="M166.6,69.5c0.5,0.9,1,1.4,1.9,1.4c1,0,1.7-0.9,1.7-2c0-2.6-3.8-1.4-3.8-4.5c0-1.8,1.2-2.6,2.7-2.6
		c0.6,0,1.3,0.2,1.7,0.7c-0.1,0.4-0.2,0.7-0.3,1.1h-0.1c-0.3-0.7-0.8-1.2-1.5-1.2c-0.8,0-1.5,0.6-1.5,1.6c0,2.5,3.8,1.5,3.8,4.4
		c0,2-1.3,3.1-3,3.1c-0.6,0-1.6-0.3-2-0.8c0.1-0.4,0.2-0.8,0.2-1.2H166.6z"/>
	<path fill="#A27C5F" d="M175.1,69.5c0.5,0.9,1,1.4,2,1.4c1,0,1.7-0.9,1.7-2c0-2.6-3.8-1.4-3.8-4.5c0-1.8,1.2-2.6,2.7-2.6
		c0.6,0,1.3,0.2,1.7,0.7c-0.1,0.4-0.2,0.7-0.3,1.1h-0.1c-0.3-0.7-0.8-1.2-1.5-1.2c-0.8,0-1.5,0.6-1.5,1.6c0,2.5,3.8,1.5,3.8,4.4
		c0,2-1.3,3.1-3,3.1c-0.6,0-1.6-0.3-2-0.8c0.1-0.4,0.2-0.8,0.2-1.2H175.1z"/>
	<path fill="#A27C5F" d="M183.3,66.7c0-3,2-4.9,4.5-4.9c2.3,0,4.6,1.4,4.6,4.7c0,3.1-1.9,5.1-4.6,5.1
		C185.1,71.5,183.3,69.6,183.3,66.7z M190.4,63.5c-0.6-0.9-1.5-1.3-2.5-1.3c-2.1,0-3.4,1.8-3.4,4.6c0,2.8,1.5,4.2,3.3,4.2
		c2.5,0,3.5-3,3.4-4.5C191.1,65.4,191,64.5,190.4,63.5z"/>
	<path fill="#A27C5F" d="M202.7,70.7c-0.8,0.6-1.7,0.8-2.7,0.8c-2.6,0-4.2-1.9-4.2-4.9c0-3.1,2-4.8,4.5-4.8c0.9,0,1.8,0.2,2.6,0.6
		c-0.1,0.3-0.2,0.7-0.3,1.1l-0.1,0c-0.2-0.2-1.1-1.2-2.3-1.2c-2.2,0-3.3,2-3.3,4.4c0,2.6,1.3,4.3,3.2,4.3c1.3,0,2.3-0.9,2.5-1.1
		L202.7,70.7z"/>
	<path fill="#A27C5F" d="M207,62c0.2,0,0.4,0,0.5,0c0.2,0,0.3,0,0.5,0v9.4c-0.2,0-0.4,0-0.5,0c-0.2,0-0.4,0-0.5,0V62z"/>
	<path fill="#A27C5F" d="M219.6,71.3c-0.2,0-0.4,0-0.6,0c-0.2,0-0.4,0-0.6,0c-0.4-1.1-0.8-2.5-1.3-3.7H214c-0.4,1.2-0.9,2.4-1.2,3.7
		c-0.2,0-0.3,0-0.4,0c-0.2,0-0.3,0-0.4,0l3.8-9.6h0.3L219.6,71.3z M215.5,63.6l-1.3,3.5h2.6L215.5,63.6z"/>
	<path fill="#A27C5F" d="M226.2,71.4c-0.2,0-0.4,0-0.5,0c-0.2,0-0.4,0-0.5,0v-8.8c-1.2,0-1.9,0.1-2.6,0.2c0-0.1,0-0.3,0-0.4
		c0-0.1,0-0.3,0-0.4l6.2,0c0,0.1,0,0.3,0,0.4c0,0.1,0,0.3,0,0.4c-0.6-0.1-1.4-0.2-2.5-0.2V71.4z"/>
	<path fill="#A27C5F" d="M233.7,66h1.9c0.4,0,0.7-0.1,1.1-0.1c0,0.1,0,0.2,0,0.4c0,0.1,0,0.2,0,0.4c-0.4,0-0.7-0.1-1.1-0.1h-1.9v4
		c0.7,0,1.5,0,2.2-0.1c0.4,0,0.7-0.1,1.1-0.1c0,0.1,0,0.3,0,0.4c0,0.1,0,0.3,0,0.4h-4.3V62l4.3,0c0,0.1,0,0.3,0,0.4
		c0,0.1,0,0.3,0,0.4c-0.4-0.1-0.7-0.1-1.1-0.2l-1.2,0h-0.9V66z"/>
	<path fill="#A27C5F" d="M241,69.5c0.5,0.9,1,1.4,2,1.4c1,0,1.7-0.9,1.7-2c0-2.6-3.8-1.4-3.8-4.5c0-1.8,1.2-2.6,2.7-2.6
		c0.6,0,1.3,0.2,1.7,0.7c-0.1,0.4-0.2,0.7-0.3,1.1h-0.1c-0.2-0.7-0.8-1.2-1.5-1.2c-0.8,0-1.5,0.6-1.5,1.6c0,2.5,3.8,1.5,3.8,4.4
		c0,2-1.3,3.1-3,3.1c-0.6,0-1.6-0.3-2-0.8c0.1-0.4,0.2-0.8,0.2-1.2H241z"/>
	<path fill="#A27C5F" d="M250,70.5c0.1-0.3,0.2-0.8,0.6-0.8c0.3,0,0.5,0.2,0.5,0.5c0,0.3-0.1,0.5-0.3,0.7l-1.4,2.7l-0.2-0.1
		L250,70.5z"/>
	<path fill="#A27C5F" d="M261.5,62c0.2,0,0.4,0,0.5,0c0.2,0,0.3,0,0.5,0v9.4c-0.2,0-0.4,0-0.5,0c-0.2,0-0.4,0-0.5,0V62z"/>
	<path fill="#A27C5F" d="M274.4,71.3H274c-0.1-0.2-0.4-0.5-0.6-0.8l-5.2-6.6h-0.1v7.4c-0.1,0-0.2,0-0.3,0c-0.1,0-0.2,0-0.3,0V62h0.5
		l5.7,7.1h0.1V62c0.1,0,0.2,0,0.3,0c0.1,0,0.2,0,0.3,0V71.3z"/>
	<path fill="#A27C5F" d="M285.5,70.7c-0.8,0.6-1.7,0.8-2.7,0.8c-2.6,0-4.2-1.9-4.2-4.9c0-3.1,2-4.8,4.5-4.8c0.9,0,1.8,0.2,2.6,0.6
		c-0.1,0.3-0.2,0.7-0.3,1.1l-0.1,0c-0.2-0.2-1.1-1.2-2.3-1.2c-2.2,0-3.3,2-3.3,4.4c0,2.6,1.3,4.3,3.2,4.3c1.3,0,2.3-0.9,2.5-1.1
		L285.5,70.7z"/>
	<path fill="#A27C5F" d="M290.3,69.8c0.4,0,0.7,0.4,0.7,0.8c0,0.5-0.3,0.8-0.7,0.8c-0.4,0-0.7-0.4-0.7-0.8
		C289.6,70.2,290,69.8,290.3,69.8z"/>
</g>
<g>
</g>
<g>
</g>
<g>
</g>
<g>
</g>
<g>
</g>
<g>
</g>
<g>
</g>
<g>
</g>
<g>
</g>
<g>
</g>
<g>
</g>
<g>
</g>
<g>
</g>
<g>
</g>
<g>
</g>
<g>
</g>
<g>
</g>
<g>
</g>
</svg>
