<?xml version="1.0" encoding="utf-8"?>
<!-- Generator: Adobe Illustrator 18.0.0, SVG Export Plug-In . SVG Version: 6.00 Build 0)  -->
<!DOCTYPE svg PUBLIC "-//W3C//DTD SVG 1.1//EN" "http://www.w3.org/Graphics/SVG/1.1/DTD/svg11.dtd">
<svg version="1.1" id="Layer_1" xmlns="http://www.w3.org/2000/svg" xmlns:xlink="http://www.w3.org/1999/xlink" x="0px" y="0px"
	 viewBox="0 517 1334 319" enable-background="new 0 517 1334 319" xml:space="preserve">
<g>
	<g>
		<g>
			<path fill="#7C2F1F" d="M512.5,560.8c52.2-21.1,95.6-27.9,131.8-26.1c47.6,2.3,88.3,8.2,95.6,12.4c2.3,1.4,2.7,0.9,0,0
				c-67.7-23.3-122.2,4.1-185.3,42.6c-69.6,41.6-215.1,139.1-304.8,159.3c-50.3,11.4-102.5,16.5-156.5-4.6
				C13.7,713.7,3.2,653.3,5,641.8c0.9-3.7,1.8-1.4,1.8-0.5c2.7,28.8,30.2,55.8,63.2,70.5c26.1,11.4,53.5,15.1,79.2,12.8
				c72.8-5.5,131.3-37.5,189-69.6C396.8,623.1,448.9,586.9,512.5,560.8z"/>
		</g>
		<g>
			<path fill="#672D00" d="M512.5,560.8c52.2-21.1,95.6-27.9,131.8-26.1c47.6,2.3,88.3,8.2,95.6,12.4c2.3,1.4,2.7,0.9,0,0
				c-67.7-23.3-122.2,4.1-185.3,42.6c-69.6,41.6-215.1,139.1-304.8,159.3c-50.3,11.4-102.5,16.5-156.5-4.6
				C13.7,713.7,3.2,653.3,5,641.8c0.9-3.7,1.8-1.4,1.8-0.5c2.7,28.8,30.2,55.8,63.2,70.5c26.1,11.4,53.5,15.1,79.2,12.8
				c72.8-5.5,131.3-37.5,189-69.6C396.8,623.1,448.9,586.9,512.5,560.8z"/>
		</g>
	</g>
	<g>
		<g>
			<path fill="#A27C5F" d="M502,544.8c52.2-21.1,95.6-27.9,131.8-26.1c47.6,2.3,98.8,24.3,105.7,28.4c2.3,1.4,1.4,2.7-1.4,1.8
				c-67.7-23.3-131.3-13.7-194.5,24.7C474.6,615.3,329,712.8,239.3,732.9c-50.3,11.4-102.5,16.5-156.5-4.6
				c-79.6-30.7-83.3-93.8-81-105.3c0.9-3.7,1.8-1.4,1.8-0.5c2.7,28.8,22.9,58.6,56.3,73.2c26.1,11.4,53.5,15.1,79.2,12.8
				c72.8-5.5,131.3-37.5,189-69.1C386.2,607.1,438.4,570.4,502,544.8z"/>
		</g>
		<g>
			<path fill="#A27C5F" d="M502,544.8c52.2-21.1,95.6-27.9,131.8-26.1c47.6,2.3,98.8,24.3,105.7,28.4c2.3,1.4,1.4,2.7-1.4,1.8
				c-67.7-23.3-131.3-13.7-194.5,24.7C474.6,615.3,329,712.8,239.3,732.9c-50.3,11.4-102.5,16.5-156.5-4.6
				c-79.6-30.7-83.3-93.8-81-105.3c0.9-3.7,1.8-1.4,1.8-0.5c2.7,28.8,22.9,58.6,56.3,73.2c26.1,11.4,53.5,15.1,79.2,12.8
				c72.8-5.5,131.3-37.5,189-69.1C386.2,607.1,438.4,570.4,502,544.8z"/>
		</g>
	</g>
	<path fill="#A27C5F" d="M125.8,680.7c-15.6,0.9-28.8-11-29.3-26.1c-0.5-15.1,11.9-28.4,27.5-28.8c15.6-0.9,28.8,11,29.3,26.1
		C153.8,667,141.4,679.8,125.8,680.7z"/>
</g>
<g>
	<path fill="#672D00" d="M509.3,732.4c5.9,11,12.8,17.8,24.7,17.8c12.4,0,21.1-11.4,21.1-25.2c0-32.5-47.6-17.8-47.6-57.2
		c0-22.4,15.6-33.4,33.9-33.4c7.3,0,16,2.7,22,8.2c-1.8,4.6-2.7,9.2-4.1,14.2h-1.4c-3.2-9.2-10.1-15.1-18.8-15.1
		c-10.5,0-19.2,7.8-19.2,20.1c0,32,48.1,19.2,48.1,56.3c0,24.7-16.9,39.8-37.5,39.8c-7.3,0-19.7-3.7-24.7-10.1
		c1.4-5,2.3-10.1,2.7-15.6H509.3z"/>
	<path fill="#672D00" d="M626.5,696.7c0-38,24.7-62.2,56.3-62.2c28.8,0,57.7,17.8,57.7,59.5c0,38.9-24.3,64.1-58.1,64.1
		C648.9,758.1,626.5,733.8,626.5,696.7z M716.2,656.9c-7.8-11-19.7-16.9-31.6-16.9c-27,0-43,22.9-43,58.6
		c0,35.2,18.8,53.5,41.6,53.5c32,0,43.9-38,42.6-57.2C725.8,680.7,724,668.8,716.2,656.9z"/>
	<path fill="#672D00" d="M896.5,755.8h-4.6c-1.8-2.3-4.6-6.4-7.8-10.5L818.2,662h-1.4v93.8c-1.4,0-2.7-0.5-4.1-0.5
		c-1.4,0-2.7,0.5-4.1,0.5v-119h5.9l72.3,89.7h1.4v-89.2c1.4,0,2.7,0.5,4.1,0.5c1.4,0,2.7-0.5,4.1-0.5L896.5,755.8L896.5,755.8z"/>
	<path fill="#672D00" d="M1059.9,657.8c-8.7-11-21.5-16.9-34.3-16.9c-26.1,0-43.9,19.7-43.9,54.5c0,34.3,15.6,55.8,45.8,55.8
		c8.2,0,16.9-1.8,23.8-5.9v-44.8c2.3,0,4.6,0.5,6.9,0.5c2.3,0,4.1-0.5,6.9-0.5v49c-13.3,5-27.5,8.2-41.6,8.2
		c-38.4,0-56.3-26.1-56.3-61.3c0-40.7,25.6-62.2,59.5-62.2c22.9,0,35.7,7.8,38.9,10.1c-1.4,4.6-2.3,8.7-3.7,13.3h-1.8V657.8z"/>
	<path fill="#672D00" d="M1148.2,689h23.8c4.6,0,9.2-0.9,13.7-0.9c0,1.4-0.5,2.7-0.5,4.6c0,1.4,0.5,2.7,0.5,5
		c-4.6,0-9.2-0.9-13.7-0.9h-23.8v50.8c9.2,0.5,18.3-0.5,27.5-0.9c4.6,0,9.2-0.9,14.2-1.4c0,1.8-0.5,3.7-0.5,5c0,1.8,0.5,3.7,0.5,5
		h-54.9V637.3h54c0,1.8-0.5,3.7-0.5,5c0,1.8,0.5,3.7,0.5,5c-4.6-0.9-9.2-1.4-13.7-1.8l-15.1-0.5h-11.9L1148.2,689L1148.2,689z"/>
	<path fill="#672D00" d="M1256.7,637.3h32.5c23.3,0,33.9,8.7,33.9,26.5c0,20.1-16,29.7-31.1,32.9l31.6,45.3l7.3,9.6l2.7,4.1
		c-3.2,0-5.9-0.5-8.7-0.5c-2.7,0-5.9,0.5-8.7,0.5c-3.2-5.5-6.4-10.1-9.6-15.1l-17.8-26.5l-12.4-16.5h-5.9v58.1
		c-2.3,0-4.6-0.5-6.9-0.5s-4.6,0.5-6.9,0.5L1256.7,637.3L1256.7,637.3z M1270.4,691.3c2.3,0,11.9,0.9,19.7-0.9
		c11-2.7,19.7-11.4,19.7-24.7c0-11.9-5.5-19.7-16.9-22c-5.5-0.9-16-0.5-22.4,0L1270.4,691.3L1270.4,691.3z"/>
	<path fill="#A27C5F" d="M668.1,824.4c-0.9,0-2.3-0.5-3.2-0.5c-0.9,0-2.3,0-3.2,0c-0.9-1.8-2.3-3.7-3.7-5.5
		c-3.2,3.7-7.3,5.9-11.9,5.9c-5.9,0-10.5-4.1-10.5-10.5c0-5.9,4.6-10.1,9.6-13.3h0.5c-1.8-3.2-3.7-5.9-3.7-9.6
		c0-5.5,3.7-9.2,8.7-9.2c4.1,0,7.3,2.3,7.3,6.4c0,5.5-4.1,8.7-7.3,11.4c2.3,3.2,4.1,6.9,6.9,9.6l2.7,3.7c2.3-3.7,4.6-8.7,6.4-12.4
		c0.5,0.9,1.4,1.8,2.3,2.7c-2.3,4.1-4.6,7.8-7.3,11.4L668.1,824.4z M646.2,803.4c-3.2,2.3-5.9,5.5-5.9,10.1c0,5.5,3.7,9.2,8.2,9.2
		c4.6,0,8.2-4.1,8.7-4.6C653.5,813,649.8,808,646.2,803.4C646.6,802.9,646.2,802.9,646.2,803.4z M654.9,789.2c0-2.7-1.8-5.5-4.6-5.5
		c-3.2,0-4.6,2.7-4.6,5.9s1.8,6.4,3.7,9.2C652.1,796.5,654.9,793.8,654.9,789.2z"/>
	<path fill="#A27C5F" d="M745.9,824.4c-0.9,0-1.8,0-2.7,0s-1.8,0-2.7,0c-1.4-5-3.7-11.4-5.9-16.9h-14.2c-1.8,5.5-4.1,11-5.5,16.9
		c-0.9,0-1.4,0-1.8,0c-0.9,0-1.4,0-1.8,0l16.9-43.9h1.4L745.9,824.4z M727.2,789.2l-5.9,16h11.9L727.2,789.2z"/>
	<path fill="#A27C5F" d="M762.4,816.2c2.3,4.1,4.6,6.4,8.7,6.4c4.6,0,7.8-4.1,7.8-9.2c0-11.9-17.4-6.4-17.4-20.6
		c0-8.2,5.5-11.9,12.4-11.9c2.7,0,5.9,0.9,7.8,3.2c-0.5,1.8-0.9,3.2-1.4,5h-0.5c-1.4-3.2-3.7-5.5-6.9-5.5c-3.7,0-6.9,2.7-6.9,7.3
		c0,11.4,17.4,6.9,17.4,20.1c0,9.2-5.9,14.2-13.7,14.2c-2.7,0-7.3-1.4-9.2-3.7c0.5-1.8,0.9-3.7,0.9-5.5H762.4z"/>
	<path fill="#A27C5F" d="M801.3,816.2c2.3,4.1,4.6,6.4,9.2,6.4c4.6,0,7.8-4.1,7.8-9.2c0-11.9-17.4-6.4-17.4-20.6
		c0-8.2,5.5-11.9,12.4-11.9c2.7,0,5.9,0.9,7.8,3.2c-0.5,1.8-0.9,3.2-1.4,5h-0.5c-1.4-3.2-3.7-5.5-6.9-5.5c-3.7,0-6.9,2.7-6.9,7.3
		c0,11.4,17.4,6.9,17.4,20.1c0,9.2-5.9,14.2-13.7,14.2c-2.7,0-7.3-1.4-9.2-3.7c0.5-1.8,0.9-3.7,0.9-5.5H801.3z"/>
	<path fill="#A27C5F" d="M838.8,803.4c0-13.7,9.2-22.4,20.6-22.4c10.5,0,21.1,6.4,21.1,21.5c0,14.2-8.7,23.3-21.1,23.3
		C847.1,825.3,838.8,816.6,838.8,803.4z M871.3,788.7c-2.7-4.1-6.9-5.9-11.4-5.9c-9.6,0-15.6,8.2-15.6,21.1s6.9,19.2,15.1,19.2
		c11.4,0,16-13.7,15.6-20.6C874.5,797.4,874.1,793.3,871.3,788.7z"/>
	<path fill="#A27C5F" d="M927.6,821.7c-3.7,2.7-7.8,3.7-12.4,3.7c-11.9,0-19.2-8.7-19.2-22.4c0-14.2,9.2-22,20.6-22
		c4.1,0,8.2,0.9,11.9,2.7c-0.5,1.4-0.9,3.2-1.4,5h-0.5c-0.9-0.9-5-5.5-10.5-5.5c-10.1,0-15.1,9.2-15.1,20.1
		c0,11.9,5.9,19.7,14.6,19.7c5.9,0,10.5-4.1,11.4-5L927.6,821.7z"/>
	<path fill="#A27C5F" d="M947.3,781.9c0.9,0,1.8,0,2.3,0c0.9,0,1.4,0,2.3,0v43c-0.9,0-1.8,0-2.3,0c-0.9,0-1.8,0-2.3,0V781.9z"/>
	<path fill="#A27C5F" d="M1005,824.4c-0.9,0-1.8,0-2.7,0s-1.8,0-2.7,0c-1.8-5-3.7-11.4-5.9-16.9h-14.2c-1.8,5.5-4.1,11-5.5,16.9
		c-0.9,0-1.4,0-1.8,0c-0.9,0-1.4,0-1.8,0l17.4-43.9h1.4L1005,824.4z M986.2,789.2l-5.9,16h11.9L986.2,789.2z"/>
	<path fill="#A27C5F" d="M1035.2,824.9c-0.9,0-1.8,0-2.3,0c-0.9,0-1.8,0-2.3,0v-40.3c-5.5,0-8.7,0.5-11.9,0.9c0-0.5,0-1.4,0-1.8
		c0-0.5,0-1.4,0-1.8h28.4c0,0.5,0,1.4,0,1.8s0,1.4,0,1.8c-2.7-0.5-6.4-0.9-11.4-0.9v40.3H1035.2z"/>
	<path fill="#A27C5F" d="M1069.5,800.2h8.7c1.8,0,3.2-0.5,5-0.5c0,0.5,0,0.9,0,1.8c0,0.5,0,0.9,0,1.8c-1.8,0-3.2-0.5-5-0.5h-8.7
		v18.3c3.2,0,6.9,0,10.1-0.5c1.8,0,3.2-0.5,5-0.5c0,0.5,0,1.4,0,1.8s0,1.4,0,1.8h-19.7v-42.1h19.7c0,0.5,0,1.4,0,1.8s0,1.4,0,1.8
		c-1.8-0.5-3.2-0.5-5-0.9h-5.5h-4.1v15.6H1069.5z"/>
	<path fill="#A27C5F" d="M1102.9,816.2c2.3,4.1,4.6,6.4,9.2,6.4c4.6,0,7.8-4.1,7.8-9.2c0-11.9-17.4-6.4-17.4-20.6
		c0-8.2,5.5-11.9,12.4-11.9c2.7,0,5.9,0.9,7.8,3.2c-0.5,1.8-0.9,3.2-1.4,5h-0.5c-0.9-3.2-3.7-5.5-6.9-5.5c-3.7,0-6.9,2.7-6.9,7.3
		c0,11.4,17.4,6.9,17.4,20.1c0,9.2-5.9,14.2-13.7,14.2c-2.7,0-7.3-1.4-9.2-3.7c0.5-1.8,0.9-3.7,0.9-5.5H1102.9z"/>
	<path fill="#A27C5F" d="M1144.1,820.8c0.5-1.4,0.9-3.7,2.7-3.7c1.4,0,2.3,0.9,2.3,2.3s-0.5,2.3-1.4,3.2l-6.4,12.4l-0.9-0.5
		L1144.1,820.8z"/>
	<path fill="#A27C5F" d="M1196.7,781.9c0.9,0,1.8,0,2.3,0c0.9,0,1.4,0,2.3,0v43c-0.9,0-1.8,0-2.3,0c-0.9,0-1.8,0-2.3,0V781.9z"/>
	<path fill="#A27C5F" d="M1255.7,824.4h-1.8c-0.5-0.9-1.8-2.3-2.7-3.7l-23.8-30.2h-0.5v33.9c-0.5,0-0.9,0-1.4,0c-0.5,0-0.9,0-1.4,0
		v-42.6h2.3l26.1,32.5h0.5v-32.5c0.5,0,0.9,0,1.4,0c0.5,0,0.9,0,1.4,0V824.4z"/>
	<path fill="#A27C5F" d="M1306.5,821.7c-3.7,2.7-7.8,3.7-12.4,3.7c-11.9,0-19.2-8.7-19.2-22.4c0-14.2,9.2-22,20.6-22
		c4.1,0,8.2,0.9,11.9,2.7c-0.5,1.4-0.9,3.2-1.4,5h-0.5c-0.9-0.9-5-5.5-10.5-5.5c-10.1,0-15.1,9.2-15.1,20.1
		c0,11.9,5.9,19.7,14.6,19.7c5.9,0,10.5-4.1,11.4-5L1306.5,821.7z"/>
	<path fill="#A27C5F" d="M1328.5,817.6c1.8,0,3.2,1.8,3.2,3.7c0,2.3-1.4,3.7-3.2,3.7c-1.8,0-3.2-1.8-3.2-3.7
		C1325.3,819.4,1327.1,817.6,1328.5,817.6z"/>
</g>
</svg>
