<?xml version="1.0" encoding="utf-8"?>
<!-- Generator: Adobe Illustrator 18.0.0, SVG Export Plug-In . SVG Version: 6.00 Build 0)  -->
<!DOCTYPE svg PUBLIC "-//W3C//DTD SVG 1.1//EN" "http://www.w3.org/Graphics/SVG/1.1/DTD/svg11.dtd">
<svg version="1.1" id="Layer_1" xmlns="http://www.w3.org/2000/svg" xmlns:xlink="http://www.w3.org/1999/xlink" x="0px" y="0px"
	 viewBox="0 0 264.2 47" enable-background="new 0 0 264.2 47" xml:space="preserve">
<g>
	<g>
		<g>
			<path fill="#7C2F1F" d="M91.1,7.9c9.2-3.7,17-4.9,23.4-4.6c8.5,0.4,15.7,1.4,16.9,2.2c0.4,0.2,0.5,0.2,0,0
				c-12-4.1-21.7,0.7-32.9,7.5c-12.3,7.4-38.1,24.7-54,28.2c-9,2-18.2,2.9-27.8-0.8C2.6,35,0.7,24.3,1,22.3c0.1-0.7,0.3-0.2,0.3-0.1
				c0.5,5.2,5.3,9.9,11.2,12.5c4.6,2,9.5,2.6,14,2.3c12.9-1,23.3-6.6,33.5-12.3C70.5,19,79.8,12.5,91.1,7.9z"/>
		</g>
		<g>
			<path fill="#672D00" d="M91.1,7.9c9.2-3.7,17-4.9,23.4-4.6c8.5,0.4,15.7,1.4,16.9,2.2c0.4,0.2,0.5,0.2,0,0
				c-12-4.1-21.7,0.7-32.9,7.5c-12.3,7.4-38.1,24.7-54,28.2c-9,2-18.2,2.9-27.8-0.8C2.6,35,0.7,24.3,1,22.3c0.1-0.7,0.3-0.2,0.3-0.1
				c0.5,5.2,5.3,9.9,11.2,12.5c4.6,2,9.5,2.6,14,2.3c12.9-1,23.3-6.6,33.5-12.3C70.5,19,79.8,12.5,91.1,7.9z"/>
		</g>
	</g>
	<g>
		<g>
			<path fill="#A27C5F" d="M89.2,5.1c9.2-3.7,17-4.9,23.4-4.6c8.5,0.4,17.5,4.3,18.8,5c0.4,0.2,0.3,0.5-0.2,0.3
				c-12-4.1-23.3-2.4-34.5,4.4c-12.3,7.4-38.1,24.7-54,28.2c-9,2-18.2,2.9-27.8-0.8C0.7,32.2,0.1,21,0.5,18.9
				c0.1-0.7,0.3-0.2,0.3-0.1c0.5,5.2,4.1,10.4,10,13c4.6,2,9.5,2.6,14,2.3c12.9-1,23.3-6.6,33.5-12.3C68.7,16.1,78,9.7,89.2,5.1z"/>
		</g>
		<g>
			<path fill="#A27C5F" d="M89.2,5.1c9.2-3.7,17-4.9,23.4-4.6c8.5,0.4,17.5,4.3,18.8,5c0.4,0.2,0.3,0.5-0.2,0.3
				c-12-4.1-23.3-2.4-34.5,4.4c-12.3,7.4-38.1,24.7-54,28.2c-9,2-18.2,2.9-27.8-0.8C0.7,32.2,0.1,21,0.5,18.9
				c0.1-0.7,0.3-0.2,0.3-0.1c0.5,5.2,4.1,10.4,10,13c4.6,2,9.5,2.6,14,2.3c12.9-1,23.3-6.6,33.5-12.3C68.7,16.1,78,9.7,89.2,5.1z"/>
		</g>
	</g>
	<path fill="#A27C5F" d="M22.4,29.2c-2.8,0.1-5.1-2-5.2-4.7c-0.1-2.7,2.1-5,4.9-5.1c2.8-0.1,5.1,2,5.2,4.7
		C27.4,26.8,25.2,29.1,22.4,29.2z"/>
</g>
<g>
	<path fill="#672D00" d="M115.8,28.3c1.1,2,2.3,3.2,4.4,3.2c2.2,0,3.8-2.1,3.8-4.6c0-5.8-8.6-3.3-8.6-10.3c0-4,2.8-6,6.1-6
		c1.3,0,2.9,0.5,3.9,1.5c-0.3,0.8-0.5,1.7-0.7,2.6h-0.3c-0.6-1.7-1.8-2.7-3.4-2.7c-1.9,0-3.5,1.4-3.5,3.7c0,5.8,8.6,3.4,8.6,10.1
		c0,4.5-3,7.1-6.8,7.1c-1.3,0-3.5-0.7-4.5-1.8c0.3-0.9,0.4-1.8,0.5-2.8H115.8z"/>
	<path fill="#672D00" d="M136.9,21.9c0-6.8,4.5-11.2,10.1-11.2c5.2,0,10.4,3.2,10.4,10.7c0,7-4.3,11.5-10.4,11.5
		C140.9,32.9,136.9,28.6,136.9,21.9z M153,14.8c-1.4-2-3.5-3-5.7-3c-4.8,0-7.7,4.2-7.7,10.5c0,6.3,3.4,9.7,7.5,9.7
		c5.8,0,7.9-6.8,7.7-10.3C154.7,19.1,154.4,16.9,153,14.8z"/>
	<path fill="#672D00" d="M185.4,32.6h-0.8c-0.3-0.4-0.9-1.2-1.4-1.9l-11.8-14.9h-0.3v16.8c-0.3,0-0.5-0.1-0.8-0.1
		c-0.3,0-0.5,0.1-0.8,0.1V11.2h1.1l13,16.1h0.3V11.2c0.2,0,0.5,0.1,0.8,0.1c0.2,0,0.5-0.1,0.8-0.1V32.6z"/>
	<path fill="#672D00" d="M214.8,14.9c-1.5-2-3.8-3-6.2-3c-4.7,0-7.9,3.5-7.9,9.8c0,6.2,2.8,10,8.2,10c1.5,0,3-0.3,4.3-1.1v-8
		c0.4,0,0.8,0.1,1.2,0.1c0.4,0,0.8-0.1,1.2-0.1v8.8c-2.4,0.9-4.9,1.4-7.5,1.4c-6.9,0-10.1-4.7-10.1-11.1c0-7.3,4.6-11.2,10.7-11.2
		c4.1,0,6.4,1.4,7,1.8c-0.2,0.8-0.4,1.6-0.6,2.4H214.8z"/>
	<path fill="#672D00" d="M230.7,20.5h4.2c0.8,0,1.6-0.1,2.4-0.2c0,0.3-0.1,0.5-0.1,0.8c0,0.3,0.1,0.5,0.1,0.9
		c-0.8,0-1.6-0.2-2.4-0.2h-4.2V31c1.7,0.1,3.3-0.1,5-0.1c0.8,0,1.7-0.1,2.5-0.3c0,0.3-0.1,0.6-0.1,0.9c0,0.3,0.1,0.6,0.1,0.9h-9.9
		V11.2h9.7c0,0.3-0.1,0.6-0.1,0.9c0,0.3,0.1,0.6,0.1,0.9c-0.8-0.2-1.6-0.3-2.5-0.3l-2.7-0.1h-2.1V20.5z"/>
	<path fill="#672D00" d="M250.3,11.2h5.8c4.2,0,6.1,1.6,6.1,4.8c0,3.6-2.9,5.4-5.6,5.9l5.6,8.2l1.3,1.8l0.5,0.8
		c-0.6,0-1.1-0.1-1.6-0.1c-0.5,0-1.1,0.1-1.6,0.1c-0.6-1-1.2-1.8-1.7-2.7l-3.2-4.8l-2.2-2.9h-1v10.4c-0.4,0-0.8-0.1-1.2-0.1
		c-0.4,0-0.8,0.1-1.2,0.1V11.2z M252.7,20.9c0.4,0,2.1,0.2,3.5-0.2c2-0.5,3.5-2,3.5-4.5c0-2.2-1-3.6-3-3.9c-1-0.2-2.9-0.1-4,0V20.9z
		"/>
	<path fill="#A27C5F" d="M144.4,44.9c-0.2,0-0.4,0-0.6,0c-0.2,0-0.4,0-0.6,0c-0.2-0.3-0.4-0.6-0.6-0.9c-0.6,0.7-1.3,1.1-2.1,1.1
		c-1.1,0-1.9-0.7-1.9-1.9c0-1.1,0.8-1.9,1.7-2.4l0.1,0c-0.3-0.5-0.7-1.1-0.7-1.8c0-1,0.6-1.7,1.5-1.7c0.7,0,1.3,0.4,1.3,1.2
		c0,1-0.7,1.6-1.3,2c0.4,0.6,0.8,1.2,1.2,1.8l0.5,0.7c0.4-0.7,0.9-1.5,1.2-2.2c0.1,0.2,0.2,0.3,0.4,0.5c-0.4,0.7-0.9,1.4-1.3,2.1
		L144.4,44.9z M140.4,41.1c-0.6,0.4-1.1,1-1.1,1.8c0,1,0.6,1.7,1.5,1.7c0.8,0,1.4-0.7,1.6-0.8C141.7,42.8,141.1,41.9,140.4,41.1
		C140.5,41,140.5,41,140.4,41.1z M142,38.6c0-0.5-0.3-0.9-0.8-0.9c-0.6,0-0.8,0.5-0.8,1.1c0,0.6,0.3,1.2,0.6,1.6
		C141.5,39.9,142,39.3,142,38.6z"/>
	<path fill="#A27C5F" d="M158.4,44.9c-0.2,0-0.3,0-0.5,0c-0.2,0-0.4,0-0.5,0c-0.3-0.9-0.6-2-1-3h-2.5c-0.3,1-0.7,2-1,3
		c-0.1,0-0.2,0-0.4,0c-0.1,0-0.2,0-0.3,0l3.1-7.9h0.2L158.4,44.9z M155,38.5l-1.1,2.9h2.2L155,38.5z"/>
	<path fill="#A27C5F" d="M161.3,43.4c0.4,0.7,0.8,1.2,1.6,1.2c0.8,0,1.4-0.8,1.4-1.6c0-2.1-3.1-1.2-3.1-3.7c0-1.5,1-2.2,2.2-2.2
		c0.5,0,1,0.2,1.4,0.5c-0.1,0.3-0.2,0.6-0.3,0.9h-0.1c-0.2-0.6-0.6-1-1.2-1c-0.7,0-1.2,0.5-1.2,1.3c0,2.1,3.1,1.2,3.1,3.6
		c0,1.6-1.1,2.6-2.4,2.6c-0.5,0-1.3-0.2-1.6-0.7C161.1,44.1,161.2,43.7,161.3,43.4L161.3,43.4z"/>
	<path fill="#A27C5F" d="M168.4,43.4c0.4,0.7,0.8,1.2,1.6,1.2c0.8,0,1.4-0.8,1.4-1.6c0-2.1-3.1-1.2-3.1-3.7c0-1.5,1-2.2,2.2-2.2
		c0.5,0,1.1,0.2,1.4,0.5c-0.1,0.3-0.2,0.6-0.3,0.9h-0.1c-0.2-0.6-0.6-1-1.2-1c-0.7,0-1.2,0.5-1.2,1.3c0,2.1,3.1,1.2,3.1,3.6
		c0,1.6-1.1,2.6-2.4,2.6c-0.5,0-1.3-0.2-1.6-0.7C168.2,44.1,168.2,43.7,168.4,43.4L168.4,43.4z"/>
	<path fill="#A27C5F" d="M175.1,41c0-2.5,1.6-4,3.7-4c1.9,0,3.8,1.1,3.8,3.9c0,2.5-1.6,4.2-3.8,4.2C176.5,45,175.1,43.5,175.1,41z
		 M180.9,38.5c-0.5-0.7-1.3-1.1-2.1-1.1c-1.7,0-2.8,1.5-2.8,3.8c0,2.3,1.2,3.5,2.7,3.5c2.1,0,2.8-2.5,2.8-3.7
		C181.5,40,181.4,39.2,180.9,38.5z"/>
	<path fill="#A27C5F" d="M191,44.4c-0.6,0.5-1.4,0.6-2.2,0.6c-2.2,0-3.5-1.6-3.5-4c0-2.5,1.6-4,3.7-4c0.7,0,1.5,0.2,2.1,0.5
		c-0.1,0.3-0.2,0.6-0.2,0.9l-0.1,0c-0.1-0.2-0.9-1-1.9-1c-1.8,0-2.7,1.7-2.7,3.6c0,2.2,1.1,3.6,2.7,3.6c1.1,0,1.9-0.7,2.1-0.9
		L191,44.4z"/>
	<path fill="#A27C5F" d="M194.6,37.2c0.1,0,0.3,0,0.4,0c0.1,0,0.3,0,0.4,0v7.7c-0.2,0-0.3,0-0.4,0c-0.1,0-0.3,0-0.4,0V37.2z"/>
	<path fill="#A27C5F" d="M204.9,44.9c-0.2,0-0.3,0-0.5,0c-0.2,0-0.4,0-0.5,0c-0.3-0.9-0.6-2-1-3h-2.5c-0.3,1-0.7,2-1,3
		c-0.1,0-0.2,0-0.4,0c-0.1,0-0.2,0-0.3,0l3.1-7.9h0.2L204.9,44.9z M201.6,38.5l-1.1,2.9h2.2L201.6,38.5z"/>
	<path fill="#A27C5F" d="M210.4,44.9c-0.2,0-0.3,0-0.4,0c-0.1,0-0.3,0-0.4,0v-7.2c-1,0-1.6,0.1-2.2,0.1c0-0.1,0-0.2,0-0.3
		c0-0.1,0-0.2,0-0.3l5.1,0c0,0.1,0,0.2,0,0.3c0,0.1,0,0.2,0,0.3c-0.5-0.1-1.2-0.1-2.1-0.1V44.9z"/>
	<path fill="#A27C5F" d="M216.5,40.6h1.5c0.3,0,0.6,0,0.9-0.1c0,0.1,0,0.2,0,0.3c0,0.1,0,0.2,0,0.3c-0.3,0-0.6-0.1-0.9-0.1h-1.5v3.3
		c0.6,0,1.2,0,1.8,0c0.3,0,0.6,0,0.9-0.1c0,0.1,0,0.2,0,0.3c0,0.1,0,0.2,0,0.3h-3.6v-7.7l3.5,0c0,0.1,0,0.2,0,0.3c0,0.1,0,0.2,0,0.3
		c-0.3-0.1-0.6-0.1-0.9-0.1l-1,0h-0.8V40.6z"/>
	<path fill="#A27C5F" d="M222.5,43.4c0.4,0.7,0.8,1.2,1.6,1.2c0.8,0,1.4-0.8,1.4-1.6c0-2.1-3.1-1.2-3.1-3.7c0-1.5,1-2.2,2.2-2.2
		c0.5,0,1,0.2,1.4,0.5c-0.1,0.3-0.2,0.6-0.3,0.9h-0.1c-0.2-0.6-0.6-1-1.2-1c-0.7,0-1.2,0.5-1.2,1.3c0,2.1,3.1,1.2,3.1,3.6
		c0,1.6-1.1,2.6-2.4,2.6c-0.5,0-1.3-0.2-1.6-0.7C222.3,44.1,222.4,43.7,222.5,43.4L222.5,43.4z"/>
	<path fill="#A27C5F" d="M230,44.2c0.1-0.2,0.2-0.6,0.5-0.6c0.2,0,0.4,0.2,0.4,0.4c0,0.2-0.1,0.4-0.2,0.6l-1.2,2.2l-0.2-0.1
		L230,44.2z"/>
	<path fill="#A27C5F" d="M239.4,37.2c0.1,0,0.3,0,0.4,0c0.1,0,0.3,0,0.4,0v7.7c-0.2,0-0.3,0-0.4,0c-0.1,0-0.3,0-0.4,0V37.2z"/>
	<path fill="#A27C5F" d="M250.1,44.9h-0.3c-0.1-0.2-0.3-0.4-0.5-0.7l-4.3-5.4h-0.1v6.1c-0.1,0-0.2,0-0.3,0c-0.1,0-0.2,0-0.3,0v-7.7
		h0.4l4.7,5.8h0.1v-5.8c0.1,0,0.2,0,0.3,0c0.1,0,0.2,0,0.3,0V44.9z"/>
	<path fill="#A27C5F" d="M259.2,44.4c-0.6,0.5-1.4,0.6-2.2,0.6c-2.2,0-3.5-1.6-3.5-4c0-2.5,1.6-4,3.7-4c0.7,0,1.5,0.2,2.1,0.5
		c-0.1,0.3-0.2,0.6-0.2,0.9l-0.1,0c-0.1-0.2-0.9-1-1.9-1c-1.8,0-2.7,1.7-2.7,3.6c0,2.2,1.1,3.6,2.7,3.6c1.1,0,1.9-0.7,2.1-0.9
		L259.2,44.4z"/>
	<path fill="#A27C5F" d="M263.2,43.6c0.3,0,0.6,0.3,0.6,0.7c0,0.4-0.3,0.7-0.6,0.7c-0.3,0-0.6-0.3-0.6-0.7
		C262.6,44,262.9,43.6,263.2,43.6z"/>
</g>
<g>
</g>
<g>
</g>
<g>
</g>
<g>
</g>
<g>
</g>
<g>
</g>
<g>
</g>
<g>
</g>
<g>
</g>
<g>
</g>
<g>
</g>
<g>
</g>
<g>
</g>
<g>
</g>
<g>
</g>
<g>
</g>
<g>
</g>
<g>
</g>
</svg>
