<?xml version="1.0" encoding="utf-8"?>
<!-- Generator: Adobe Illustrator 18.0.0, SVG Export Plug-In . SVG Version: 6.00 Build 0)  -->
<!DOCTYPE svg PUBLIC "-//W3C//DTD SVG 1.1//EN" "http://www.w3.org/Graphics/SVG/1.1/DTD/svg11.dtd">
<svg version="1.1" id="Layer_1" xmlns="http://www.w3.org/2000/svg" xmlns:xlink="http://www.w3.org/1999/xlink" x="0px" y="0px"
	 viewBox="0 0 149.3 96" enable-background="new 0 0 149.3 96" xml:space="preserve">
<g>
	<g>
		<path fill="#7C2F1F" d="M103.9,8c9.2-3.7,17-4.9,23.4-4.6c8.5,0.4,15.7,1.4,16.9,2.2c0.4,0.2,0.5,0.2,0,0
			c-12-4.1-21.7,0.7-32.9,7.5c-12.3,7.4-38.1,24.7-54,28.2c-9,2-18.2,2.9-27.8-0.8C15.4,35,13.5,24.3,13.9,22.3
			c0.1-0.7,0.3-0.2,0.3-0.1c0.5,5.2,5.3,9.9,11.2,12.5c4.6,2,9.5,2.6,14,2.3c12.9-1,23.3-6.6,33.5-12.3C83.4,19,92.7,12.5,103.9,8z"
			/>
	</g>
	<g>
		<path fill="#672D00" d="M103.9,8c9.2-3.7,17-4.9,23.4-4.6c8.5,0.4,15.7,1.4,16.9,2.2c0.4,0.2,0.5,0.2,0,0
			c-12-4.1-21.7,0.7-32.9,7.5c-12.3,7.4-38.1,24.7-54,28.2c-9,2-18.2,2.9-27.8-0.8C15.4,35,13.5,24.3,13.9,22.3
			c0.1-0.7,0.3-0.2,0.3-0.1c0.5,5.2,5.3,9.9,11.2,12.5c4.6,2,9.5,2.6,14,2.3c12.9-1,23.3-6.6,33.5-12.3C83.4,19,92.7,12.5,103.9,8z"
			/>
	</g>
</g>
<g>
	<g>
		<path fill="#A27C5F" d="M102.1,5.1c9.2-3.7,17-4.9,23.4-4.6c8.5,0.4,17.5,4.3,18.8,5c0.4,0.2,0.3,0.5-0.2,0.3
			c-12-4.1-23.3-2.4-34.5,4.4c-12.3,7.4-38.1,24.7-54,28.2c-9,2-18.2,2.9-27.8-0.8C13.5,32.2,12.9,21,13.3,19
			c0.1-0.7,0.3-0.2,0.3-0.1c0.5,5.2,4.1,10.4,10,13c4.6,2,9.5,2.6,14,2.3c12.9-1,23.3-6.6,33.5-12.3C81.5,16.1,90.8,9.7,102.1,5.1z"
			/>
	</g>
	<g>
		<path fill="#A27C5F" d="M102.1,5.1c9.2-3.7,17-4.9,23.4-4.6c8.5,0.4,17.5,4.3,18.8,5c0.4,0.2,0.3,0.5-0.2,0.3
			c-12-4.1-23.3-2.4-34.5,4.4c-12.3,7.4-38.1,24.7-54,28.2c-9,2-18.2,2.9-27.8-0.8C13.5,32.2,12.9,21,13.3,19
			c0.1-0.7,0.3-0.2,0.3-0.1c0.5,5.2,4.1,10.4,10,13c4.6,2,9.5,2.6,14,2.3c12.9-1,23.3-6.6,33.5-12.3C81.5,16.1,90.8,9.7,102.1,5.1z"
			/>
	</g>
</g>
<path fill="#A27C5F" d="M35.3,29.2c-2.8,0.1-5.1-2-5.2-4.7c-0.1-2.7,2.1-5,4.9-5.1c2.8-0.1,5.1,2,5.2,4.7
	C40.2,26.8,38,29.1,35.3,29.2z"/>
<g>
	<path fill="#672D00" d="M1,74.3c1.1,2,2.3,3.2,4.4,3.2c2.2,0,3.8-2.1,3.8-4.6c0-5.8-8.6-3.3-8.6-10.3c0-4,2.8-6,6.1-6
		c1.3,0,2.9,0.5,3.9,1.5c-0.3,0.8-0.5,1.7-0.7,2.6H9.7c-0.6-1.7-1.8-2.7-3.4-2.7c-1.9,0-3.5,1.4-3.5,3.7c0,5.8,8.6,3.4,8.6,10.1
		c0,4.5-3,7.1-6.8,7.1c-1.3,0-3.5-0.7-4.5-1.8c0.3-0.9,0.4-1.8,0.5-2.8H1z"/>
	<path fill="#672D00" d="M22.1,67.9c0-6.8,4.5-11.2,10.1-11.2c5.2,0,10.4,3.2,10.4,10.7c0,7-4.3,11.5-10.4,11.5
		C26.1,78.9,22.1,74.6,22.1,67.9z M38.2,60.8c-1.4-2-3.5-3-5.7-3c-4.8,0-7.7,4.2-7.7,10.5c0,6.3,3.4,9.7,7.5,9.7
		c5.8,0,7.9-6.8,7.7-10.3C39.9,65.1,39.6,62.9,38.2,60.8z"/>
	<path fill="#672D00" d="M70.6,78.6h-0.8c-0.3-0.4-0.9-1.2-1.4-1.9L56.5,61.7h-0.3v16.8c-0.3,0-0.5-0.1-0.8-0.1
		c-0.3,0-0.5,0.1-0.8,0.1V57.2h1.1l13,16.1h0.3V57.2c0.2,0,0.5,0.1,0.8,0.1c0.2,0,0.5-0.1,0.8-0.1V78.6z"/>
	<path fill="#672D00" d="M100,60.9c-1.5-2-3.8-3-6.2-3c-4.7,0-7.9,3.5-7.9,9.8c0,6.2,2.8,10,8.2,10c1.5,0,3-0.3,4.3-1.1v-8
		c0.4,0,0.8,0.1,1.2,0.1c0.4,0,0.8-0.1,1.2-0.1v8.8c-2.4,0.9-4.9,1.4-7.5,1.4c-6.9,0-10.1-4.7-10.1-11.1c0-7.3,4.6-11.2,10.7-11.2
		c4.1,0,6.4,1.4,7,1.8c-0.2,0.8-0.4,1.6-0.6,2.4H100z"/>
	<path fill="#672D00" d="M115.9,66.5h4.2c0.8,0,1.6-0.1,2.4-0.2c0,0.3-0.1,0.5-0.1,0.8c0,0.3,0.1,0.5,0.1,0.9
		c-0.8,0-1.6-0.2-2.4-0.2h-4.2V77c1.7,0.1,3.3-0.1,5-0.1c0.8,0,1.7-0.1,2.5-0.3c0,0.3-0.1,0.6-0.1,0.9c0,0.3,0.1,0.6,0.1,0.9h-9.9
		V57.2h9.7c0,0.3-0.1,0.6-0.1,0.9c0,0.3,0.1,0.6,0.1,0.9c-0.8-0.2-1.6-0.3-2.5-0.3l-2.7-0.1h-2.1V66.5z"/>
	<path fill="#672D00" d="M135.4,57.2h5.8c4.2,0,6.1,1.6,6.1,4.8c0,3.6-2.9,5.4-5.6,5.9l5.6,8.2l1.3,1.8l0.5,0.8
		c-0.6,0-1.1-0.1-1.6-0.1c-0.5,0-1.1,0.1-1.6,0.1c-0.6-1-1.2-1.8-1.7-2.7l-3.2-4.8l-2.2-2.9h-1v10.4c-0.4,0-0.8-0.1-1.2-0.1
		c-0.4,0-0.8,0.1-1.2,0.1V57.2z M137.8,66.9c0.4,0,2.1,0.2,3.5-0.2c2-0.5,3.5-2,3.5-4.5c0-2.2-1-3.6-3-3.9c-1-0.2-2.9-0.1-4,0V66.9z
		"/>
	<path fill="#A27C5F" d="M17.5,93.9c-0.2,0-0.4,0-0.6,0c-0.2,0-0.4,0-0.6,0c-0.2-0.3-0.4-0.6-0.6-0.9c-0.6,0.7-1.3,1.1-2.1,1.1
		c-1.1,0-1.9-0.7-1.9-1.9c0-1.1,0.8-1.9,1.7-2.4l0.1,0c-0.3-0.5-0.7-1.1-0.7-1.8c0-1,0.6-1.7,1.5-1.7c0.7,0,1.3,0.4,1.3,1.2
		c0,1-0.7,1.6-1.3,2c0.4,0.6,0.8,1.2,1.2,1.8l0.5,0.7c0.4-0.7,0.9-1.5,1.2-2.2c0.1,0.2,0.2,0.3,0.4,0.5c-0.4,0.7-0.9,1.4-1.3,2.1
		L17.5,93.9z M13.6,90.1c-0.6,0.4-1.1,1-1.1,1.8c0,1,0.6,1.7,1.5,1.7c0.8,0,1.4-0.7,1.6-0.8C14.9,91.8,14.3,90.9,13.6,90.1
		C13.6,90,13.6,90,13.6,90.1z M15.2,87.6c0-0.5-0.3-0.9-0.8-0.9c-0.6,0-0.8,0.5-0.8,1.1c0,0.6,0.3,1.2,0.6,1.6
		C14.7,88.9,15.2,88.3,15.2,87.6z"/>
	<path fill="#A27C5F" d="M31.5,93.9c-0.2,0-0.3,0-0.5,0c-0.2,0-0.4,0-0.5,0c-0.3-0.9-0.6-2-1-3h-2.5c-0.3,1-0.7,2-1,3
		c-0.1,0-0.2,0-0.4,0c-0.1,0-0.2,0-0.3,0l3.1-7.9h0.2L31.5,93.9z M28.2,87.5l-1.1,2.9h2.2L28.2,87.5z"/>
	<path fill="#A27C5F" d="M34.5,92.4c0.4,0.7,0.8,1.2,1.6,1.2c0.8,0,1.4-0.8,1.4-1.6c0-2.1-3.1-1.2-3.1-3.7c0-1.5,1-2.2,2.2-2.2
		c0.5,0,1,0.2,1.4,0.5c-0.1,0.3-0.2,0.6-0.3,0.9h-0.1c-0.2-0.6-0.6-1-1.2-1c-0.7,0-1.2,0.5-1.2,1.3c0,2.1,3.1,1.2,3.1,3.6
		c0,1.6-1.1,2.6-2.4,2.6c-0.5,0-1.3-0.2-1.6-0.7C34.3,93.1,34.3,92.7,34.5,92.4L34.5,92.4z"/>
	<path fill="#A27C5F" d="M41.5,92.4c0.4,0.7,0.8,1.2,1.6,1.2c0.8,0,1.4-0.8,1.4-1.6c0-2.1-3.1-1.2-3.1-3.7c0-1.5,1-2.2,2.2-2.2
		c0.5,0,1.1,0.2,1.4,0.5c-0.1,0.3-0.2,0.6-0.3,0.9h-0.1c-0.2-0.6-0.6-1-1.2-1c-0.7,0-1.2,0.5-1.2,1.3c0,2.1,3.1,1.2,3.1,3.6
		c0,1.6-1.1,2.6-2.4,2.6c-0.5,0-1.3-0.2-1.6-0.7C41.3,93.1,41.4,92.7,41.5,92.4L41.5,92.4z"/>
	<path fill="#A27C5F" d="M48.2,90c0-2.5,1.6-4,3.7-4c1.9,0,3.8,1.1,3.8,3.9c0,2.5-1.6,4.2-3.8,4.2C49.7,94,48.2,92.5,48.2,90z
		 M54,87.5c-0.5-0.7-1.3-1.1-2.1-1.1c-1.7,0-2.8,1.5-2.8,3.8c0,2.3,1.2,3.5,2.7,3.5c2.1,0,2.8-2.5,2.8-3.7
		C54.7,89,54.6,88.2,54,87.5z"/>
	<path fill="#A27C5F" d="M64.2,93.4C63.6,93.9,62.7,94,62,94c-2.2,0-3.5-1.6-3.5-4c0-2.5,1.6-4,3.7-4c0.7,0,1.5,0.2,2.1,0.5
		c-0.1,0.3-0.2,0.6-0.2,0.9l-0.1,0c-0.1-0.2-0.9-1-1.9-1c-1.8,0-2.7,1.7-2.7,3.6c0,2.2,1.1,3.6,2.7,3.6c1.1,0,1.9-0.7,2.1-0.9
		L64.2,93.4z"/>
	<path fill="#A27C5F" d="M67.8,86.2c0.1,0,0.3,0,0.4,0c0.1,0,0.3,0,0.4,0v7.7c-0.2,0-0.3,0-0.4,0c-0.1,0-0.3,0-0.4,0V86.2z"/>
	<path fill="#A27C5F" d="M78.1,93.9c-0.2,0-0.3,0-0.5,0c-0.2,0-0.4,0-0.5,0c-0.3-0.9-0.6-2-1-3h-2.5c-0.3,1-0.7,2-1,3
		c-0.1,0-0.2,0-0.4,0c-0.1,0-0.2,0-0.3,0l3.1-7.9h0.2L78.1,93.9z M74.8,87.5l-1.1,2.9h2.2L74.8,87.5z"/>
	<path fill="#A27C5F" d="M83.6,93.9c-0.2,0-0.3,0-0.4,0c-0.1,0-0.3,0-0.4,0v-7.2c-1,0-1.6,0.1-2.2,0.1c0-0.1,0-0.2,0-0.3
		c0-0.1,0-0.2,0-0.3l5.1,0c0,0.1,0,0.2,0,0.3c0,0.1,0,0.2,0,0.3c-0.5-0.1-1.2-0.1-2.1-0.1V93.9z"/>
	<path fill="#A27C5F" d="M89.7,89.6h1.5c0.3,0,0.6,0,0.9-0.1c0,0.1,0,0.2,0,0.3c0,0.1,0,0.2,0,0.3c-0.3,0-0.6-0.1-0.9-0.1h-1.5v3.3
		c0.6,0,1.2,0,1.8,0c0.3,0,0.6,0,0.9-0.1c0,0.1,0,0.2,0,0.3c0,0.1,0,0.2,0,0.3h-3.6v-7.7l3.5,0c0,0.1,0,0.2,0,0.3c0,0.1,0,0.2,0,0.3
		c-0.3-0.1-0.6-0.1-0.9-0.1l-1,0h-0.8V89.6z"/>
	<path fill="#A27C5F" d="M95.7,92.4c0.4,0.7,0.8,1.2,1.6,1.2c0.8,0,1.4-0.8,1.4-1.6c0-2.1-3.1-1.2-3.1-3.7c0-1.5,1-2.2,2.2-2.2
		c0.5,0,1,0.2,1.4,0.5c-0.1,0.3-0.2,0.6-0.3,0.9h-0.1c-0.2-0.6-0.6-1-1.2-1c-0.7,0-1.2,0.5-1.2,1.3c0,2.1,3.1,1.2,3.1,3.6
		c0,1.6-1.1,2.6-2.4,2.6c-0.5,0-1.3-0.2-1.6-0.7C95.5,93.1,95.5,92.7,95.7,92.4L95.7,92.4z"/>
	<path fill="#A27C5F" d="M103.1,93.2c0.1-0.2,0.2-0.6,0.5-0.6c0.2,0,0.4,0.2,0.4,0.4c0,0.2-0.1,0.4-0.2,0.6l-1.2,2.2l-0.2-0.1
		L103.1,93.2z"/>
	<path fill="#A27C5F" d="M112.6,86.2c0.1,0,0.3,0,0.4,0c0.1,0,0.3,0,0.4,0v7.7c-0.2,0-0.3,0-0.4,0c-0.1,0-0.3,0-0.4,0V86.2z"/>
	<path fill="#A27C5F" d="M123.2,93.9h-0.3c-0.1-0.2-0.3-0.4-0.5-0.7l-4.3-5.4H118v6.1c-0.1,0-0.2,0-0.3,0c-0.1,0-0.2,0-0.3,0v-7.7
		h0.4l4.7,5.8h0.1v-5.8c0.1,0,0.2,0,0.3,0c0.1,0,0.2,0,0.3,0V93.9z"/>
	<path fill="#A27C5F" d="M132.3,93.4c-0.6,0.5-1.4,0.6-2.2,0.6c-2.2,0-3.5-1.6-3.5-4c0-2.5,1.6-4,3.7-4c0.7,0,1.5,0.2,2.1,0.5
		c-0.1,0.3-0.2,0.6-0.2,0.9l-0.1,0c-0.1-0.2-0.9-1-1.9-1c-1.8,0-2.7,1.7-2.7,3.6c0,2.2,1.1,3.6,2.7,3.6c1.1,0,1.9-0.7,2.1-0.9
		L132.3,93.4z"/>
	<path fill="#A27C5F" d="M136.3,92.6c0.3,0,0.6,0.3,0.6,0.7c0,0.4-0.3,0.7-0.6,0.7c-0.3,0-0.6-0.3-0.6-0.7
		C135.7,93,136,92.6,136.3,92.6z"/>
</g>
<g>
</g>
<g>
</g>
<g>
</g>
<g>
</g>
<g>
</g>
<g>
</g>
<g>
</g>
<g>
</g>
<g>
</g>
<g>
</g>
<g>
</g>
<g>
</g>
<g>
</g>
<g>
</g>
<g>
</g>
<g>
</g>
<g>
</g>
<g>
</g>
</svg>
